# xmcd CD database file
#
# Track frame offsets:
#	150
#	19158
#	55701
#	88971
#	112036
#	137134
#	174152
#	193485
#	222358
#	246177
#	282069
#	299091
#
# Disc length: 4297 seconds
#
# Revision: 0
# Processed by: cddbd v1.5.2PL0 Copyright (c) Steve Scherf et al.
# Submitted via: CDex 1.51
#
DISCID=be10c70c
DTITLE=NANIWA EXPRESS - 30th
DYEAR=2007
DGENRE=Jazz
TTITLE0=El Drado
TTITLE1=Free People Stroke
TTITLE2=U.H.Funk
TTITLE3=Wild Card
TTITLE4=Sons Of Sun
TTITLE5=Walkin' Thru The River
TTITLE6=B.P.J.P.
TTITLE7=Vacuum Vox
TTITLE8=Days And Nights In Rio
TTITLE9=Love No Limit
TTITLE10=Kimi To Boku No Nagisa
TTITLE11=Go 4 It !
EXTD=YEAR: 2007
EXTT0=
EXTT1=
EXTT2=
EXTT3=
EXTT4=
EXTT5=
EXTT6=
EXTT7=
EXTT8=
EXTT9=
EXTT10=
EXTT11=
PLAYORDER=
